<?xml version="1.0" encoding="UTF-8"?><svg id="Layer_1" xmlns="http://www.w3.org/2000/svg" viewBox="0 0 1454.67 899.39"><defs><style>.cls-1,.cls-2,.cls-3,.cls-4,.cls-5,.cls-6{opacity:.1;}.cls-1,.cls-7,.cls-8,.cls-9,.cls-10,.cls-11,.cls-12{fill:#4bbfaa;}.cls-2,.cls-13,.cls-14,.cls-15,.cls-16,.cls-17,.cls-18{fill:#6193c7;}.cls-3,.cls-19,.cls-20,.cls-21,.cls-22,.cls-23,.cls-24{fill:#cf635d;}.cls-4,.cls-25,.cls-26,.cls-27,.cls-28,.cls-29,.cls-30{fill:#fdb615;}.cls-5,.cls-31,.cls-32,.cls-33,.cls-34,.cls-35,.cls-36{fill:#9398bb;}.cls-6,.cls-37,.cls-38,.cls-39,.cls-40,.cls-41{fill:#f68920;}.cls-42{letter-spacing:-.04em;}.cls-43{fill:#f68a1f;}.cls-43,.cls-19,.cls-25,.cls-31,.cls-8,.cls-14{font-family:MontserratRoman-SemiBold, Montserrat;font-size:80px;font-variation-settings:'wght' 600;font-weight:600;}.cls-44{letter-spacing:-.04em;}.cls-45{letter-spacing:0em;}.cls-46{letter-spacing:-.01em;}.cls-47{letter-spacing:0em;}.cls-48{letter-spacing:-.02em;}.cls-7,.cls-13,.cls-20,.cls-26,.cls-32,.cls-37{opacity:.2;}.cls-49{letter-spacing:0em;}.cls-50{letter-spacing:.01em;}.cls-51{letter-spacing:0em;}.cls-52{letter-spacing:0em;}.cls-53{letter-spacing:-.02em;}.cls-54{letter-spacing:0em;}.cls-55{letter-spacing:0em;}.cls-56{letter-spacing:0em;}.cls-21,.cls-33,.cls-27,.cls-38,.cls-9,.cls-15{opacity:.6;}.cls-10,.cls-16,.cls-22,.cls-34,.cls-39,.cls-28{opacity:.5;}.cls-23,.cls-35,.cls-29,.cls-40,.cls-11,.cls-17{opacity:.3;}.cls-12,.cls-18,.cls-24,.cls-30,.cls-36,.cls-41{opacity:.4;}.cls-57{letter-spacing:0em;}.cls-58{fill:#231f20;font-family:MontserratRoman-Regular, Montserrat;font-size:75px;font-variation-settings:'wght' 400;}</style></defs><text class="cls-8" transform="translate(16.14 453.04)"><tspan class="cls-55" x="0" y="0">O</tspan><tspan class="cls-47" x="67.76" y="0">t</tspan><tspan class="cls-54" x="101.68" y="0">h</tspan><tspan class="cls-47" x="156.56" y="0">e</tspan><tspan class="cls-42" x="206.32" y="0">r</tspan><tspan class="cls-51" x="236.72" y="0">/No</tspan><tspan class="cls-56" x="382.8" y="0">n</tspan><tspan class="cls-51" x="437.67" y="0">e</tspan></text><rect class="cls-2" x="584.53" y="46.14" width="132.81" height="77.4"/><rect class="cls-13" x="717.34" y="46.14" width="132.81" height="77.4"/><rect class="cls-17" x="850.16" y="46.14" width="132.81" height="77.4"/><rect class="cls-18" x="982.97" y="46.14" width="132.81" height="77.4"/><rect class="cls-16" x="1115.78" y="46.14" width="132.81" height="77.4"/><rect class="cls-15" x="1248.6" y="46.14" width="132.81" height="77.4"/><rect class="cls-3" x="584.53" y="160.24" width="132.81" height="77.4"/><rect class="cls-20" x="717.34" y="160.24" width="132.81" height="77.4"/><rect class="cls-23" x="850.16" y="160.24" width="132.81" height="77.4"/><rect class="cls-24" x="982.97" y="160.24" width="132.81" height="77.4"/><rect class="cls-22" x="1115.78" y="160.24" width="132.81" height="77.4"/><rect class="cls-21" x="1248.6" y="160.24" width="132.81" height="77.4"/><rect class="cls-4" x="584.53" y="274.33" width="132.81" height="77.4"/><rect class="cls-26" x="717.34" y="274.33" width="132.81" height="77.4"/><rect class="cls-29" x="850.16" y="274.33" width="132.81" height="77.4"/><rect class="cls-30" x="982.97" y="274.33" width="132.81" height="77.4"/><rect class="cls-28" x="1115.78" y="274.33" width="132.81" height="77.4"/><rect class="cls-27" x="1248.6" y="274.33" width="132.81" height="77.4"/><rect class="cls-1" x="584.53" y="388.42" width="132.81" height="77.4"/><rect class="cls-7" x="717.34" y="388.42" width="132.81" height="77.4"/><rect class="cls-11" x="850.16" y="388.42" width="132.81" height="77.4"/><rect class="cls-12" x="982.97" y="388.42" width="132.81" height="77.4"/><rect class="cls-10" x="1115.78" y="388.42" width="132.81" height="77.4"/><rect class="cls-9" x="1248.6" y="388.42" width="132.81" height="77.4"/><text class="cls-14" transform="translate(16.14 111.72)"><tspan x="0" y="0">De</tspan><tspan class="cls-52" x="115.84" y="0">m</tspan><tspan class="cls-47" x="200.16" y="0">oc</tspan><tspan class="cls-44" x="298.24" y="0">r</tspan><tspan x="328.4" y="0">atic</tspan></text><text class="cls-19" transform="translate(16.14 227.68)"><tspan x="0" y="0">Republican</tspan></text><text class="cls-25" transform="translate(16.14 341.6)"><tspan x="0" y="0">I</tspan><tspan class="cls-56" x="25.52" y="0">n</tspan><tspan x="80.4" y="0">depe</tspan><tspan class="cls-54" x="289.76" y="0">n</tspan><tspan class="cls-47" x="344.64" y="0">dent</tspan></text><rect class="cls-5" x="584.53" y="502.52" width="132.81" height="77.4"/><rect class="cls-32" x="717.34" y="502.52" width="132.81" height="77.4"/><rect class="cls-35" x="850.16" y="502.52" width="132.81" height="77.4"/><rect class="cls-36" x="982.97" y="502.52" width="132.81" height="77.4"/><rect class="cls-34" x="1115.78" y="502.52" width="132.81" height="77.4"/><rect class="cls-33" x="1248.6" y="502.52" width="132.81" height="77.4"/><rect class="cls-6" x="584.53" y="616.61" width="132.81" height="77.4"/><rect class="cls-37" x="717.34" y="616.61" width="132.81" height="77.4"/><rect class="cls-40" x="850.16" y="616.61" width="132.81" height="77.4"/><rect class="cls-41" x="982.97" y="616.61" width="132.81" height="77.4"/><rect class="cls-39" x="1115.78" y="616.61" width="132.81" height="77.4"/><rect class="cls-38" x="1248.6" y="616.61" width="132.81" height="77.4"/><text class="cls-31" transform="translate(16.14 569.96)"><tspan x="0" y="0">De</tspan><tspan class="cls-52" x="115.84" y="0">m</tspan><tspan class="cls-47" x="200.16" y="0">oc</tspan><tspan class="cls-44" x="298.24" y="0">r</tspan><tspan x="328.4" y="0">ati</tspan><tspan class="cls-50" x="433.99" y="0">c</tspan><tspan class="cls-51" x="481.67" y="0">*</tspan></text><text class="cls-43" transform="translate(16.14 683.89)"><tspan x="0" y="0">Republica</tspan><tspan class="cls-48" x="413.75" y="0">n</tspan><tspan class="cls-47" x="466.55" y="0">*</tspan></text><text class="cls-58" transform="translate(639.9 801.33) rotate(-45)"><tspan x="0" y="0">&lt;5</tspan></text><text class="cls-58" transform="translate(746.85 844.44) rotate(-45)"><tspan x="0" y="0">5</tspan><tspan class="cls-53" x="42.45" y="0">-</tspan><tspan class="cls-57" x="69.82" y="0">10</tspan></text><text class="cls-58" transform="translate(862.9 864.01) rotate(-45)"><tspan x="0" y="0">1</tspan><tspan class="cls-45" x="27.07" y="0">0</tspan><tspan class="cls-53" x="77.32" y="0">-</tspan><tspan x="104.7" y="0">15</tspan></text><text class="cls-58" transform="translate(981.38 874.72) rotate(-45)"><tspan x="0" y="0">15</tspan><tspan class="cls-46" x="69.52" y="0">-</tspan><tspan class="cls-49" x="97.27" y="0">2</tspan><tspan x="139.72" y="0">0</tspan></text><text class="cls-58" transform="translate(1107.47 886.13) rotate(-45)"><tspan class="cls-49" x="0" y="0">2</tspan><tspan class="cls-45" x="42.45" y="0">0</tspan><tspan class="cls-46" x="92.7" y="0">-</tspan><tspan x="120.45" y="0">25</tspan></text><text class="cls-58" transform="translate(1284.21 831.45) rotate(-45)"><tspan x="0" y="0">&gt;25</tspan></text></svg>